<svg width="22.683533" height="23.361023" viewBox="0 0 22.6835 23.361" fill="none" xmlns="http://www.w3.org/2000/svg" xmlns:xlink="http://www.w3.org/1999/xlink">
	<desc>
			Created with Pixso.
	</desc>
	<defs/>
	<rect id="фрейм 1" width="22.683489" height="23.361023" fill="#FFFFFF" fill-opacity="0"/>
	<path id="Vector" d="M7.86 2.53C7.86 2.43 7.91 2.38 8.01 2.38L14.67 2.38C14.76 2.38 14.81 2.43 14.81 2.53L14.81 4.17L17.13 4.17L17.13 2.53C17.13 1.14 16.02 0 14.67 0L8.01 0C6.66 0 5.55 1.14 5.55 2.53L5.55 4.17L7.86 4.17L7.86 2.53ZM21.52 6.06L1.15 6.06C0.53 6.06 0 6.61 0 7.25L0 11.23L7.57 11.23C8.2 11.23 8.73 11.77 8.73 12.42L8.73 12.72C8.73 13.22 9.31 13.81 10.18 14.06L10.18 14.01C10.18 13.37 10.71 12.82 11.34 12.82C11.96 12.82 12.49 13.37 12.49 14.01L12.49 14.06C13.36 13.81 13.94 13.22 13.94 12.72L13.94 12.42C13.94 11.77 14.47 11.23 15.1 11.23L22.68 11.23L22.68 7.25C22.68 6.61 22.15 6.06 21.52 6.06Z" fill="#5D5AF6" fill-opacity="1.000000" fill-rule="nonzero"/>
	<path id="Vector" d="M12.49 16.55L12.49 16.8C12.49 17.44 11.96 17.99 11.34 17.99C10.71 17.99 10.18 17.44 10.18 16.79L10.18 16.55C8.34 16.2 6.94 15.11 6.51 13.66L0 13.66L0 22.16C0 22.81 0.53 23.36 1.15 23.36L21.52 23.36C22.15 23.36 22.68 22.81 22.68 22.16L22.68 13.66L16.16 13.66C15.73 15.11 14.33 16.2 12.49 16.55Z" fill="#5D5AF6" fill-opacity="1.000000" fill-rule="nonzero"/>
</svg>
