<svg width="147" height="31" viewBox="0 0 147 31" fill="none" xmlns="http://www.w3.org/2000/svg">
<path d="M35.8043 18.8235V16.1092H38.2333C38.7023 16.1092 39.1071 16.0143 39.4478 15.8244C39.7885 15.6322 40.051 15.3618 40.2353 15.0134C40.422 14.6625 40.5153 14.2576 40.5153 13.7986C40.5153 13.3156 40.422 12.8986 40.2353 12.5478C40.051 12.1969 39.7885 11.929 39.4478 11.7439C39.1071 11.5613 38.7023 11.47 38.2333 11.47H35.8043V8.75569H38.0863C39.2343 8.75569 40.2201 8.95275 41.0438 9.34685C41.8651 9.74337 42.4951 10.3045 42.9338 11.0302C43.3748 11.756 43.5953 12.6283 43.5953 13.6472V13.9536C43.5953 14.9461 43.3748 15.8088 42.9338 16.5417C42.4951 17.2723 41.8651 17.8358 41.0438 18.2323C40.2201 18.6264 39.2343 18.8235 38.0863 18.8235H35.8043ZM33.1303 22.8174V8.75569H36.1753V22.8174H33.1303Z" fill="#5D5AF6"/>
<path d="M45.4293 22.8174V12.3459H47.7848V16.8373H47.7323C47.7323 15.3594 48.038 14.2191 48.6493 13.4165C49.2607 12.6139 50.1473 12.2126 51.3093 12.2126H51.7013V14.8512H50.9593C50.1427 14.8512 49.5115 15.0771 49.0658 15.5288C48.6202 15.9806 48.3973 16.6331 48.3973 17.4862V22.8174H45.4293Z" fill="#5D5AF6"/>
<path d="M58.1378 23.1779C57.2465 23.1779 56.4543 23.0349 55.7613 22.749C55.0706 22.463 54.4873 22.0713 54.0113 21.5738C53.5353 21.0788 53.1736 20.5093 52.9263 19.8652C52.679 19.2212 52.5553 18.5423 52.5553 17.8286V17.3925C52.5553 16.6643 52.6813 15.9722 52.9333 15.3162C53.1876 14.6625 53.5586 14.087 54.0463 13.5895C54.5363 13.0921 55.1266 12.7004 55.8173 12.4144C56.5103 12.1285 57.2838 11.9855 58.1378 11.9855C59.0151 11.9855 59.7968 12.1285 60.4828 12.4144C61.1688 12.7004 61.7533 13.0921 62.2363 13.5895C62.7193 14.087 63.0903 14.6625 63.3493 15.3162C63.6083 15.9722 63.7378 16.6643 63.7378 17.3925V17.8286C63.7378 18.5423 63.6141 19.2212 63.3668 19.8652C63.1195 20.5093 62.7578 21.0788 62.2818 21.5738C61.8058 22.0713 61.2225 22.463 60.5318 22.749C59.8388 23.0349 59.0408 23.1779 58.1378 23.1779ZM58.1378 20.6006C58.7188 20.6006 59.2006 20.4732 59.5833 20.2185C59.9683 19.9638 60.2623 19.6069 60.4653 19.1479C60.6683 18.6889 60.7698 18.1795 60.7698 17.6195C60.7698 17.0212 60.6648 16.4961 60.4548 16.0443C60.2448 15.5925 59.945 15.2321 59.5553 14.9629C59.1656 14.6962 58.6931 14.5628 58.1378 14.5628C57.5941 14.5628 57.124 14.6962 56.7273 14.9629C56.3306 15.2321 56.0308 15.5925 55.8278 16.0443C55.6248 16.4961 55.5233 17.0212 55.5233 17.6195C55.5233 18.1795 55.6213 18.6889 55.8173 19.1479C56.0156 19.6069 56.3131 19.9638 56.7098 20.2185C57.1041 20.4732 57.5801 20.6006 58.1378 20.6006Z" fill="#5D5AF6"/>
<path d="M66.0408 22.8174V12.2522C66.0408 11.0411 66.3745 10.1435 67.0418 9.55954C67.7091 8.97319 68.6926 8.68001 69.9923 8.68001H71.2908V10.9726H69.8593C69.5256 10.9726 69.2666 11.0675 69.0823 11.2573C68.8956 11.4496 68.8023 11.7175 68.8023 12.0612V22.8174H66.0408ZM64.8333 14.7935V12.5586H71.4378V14.7935H64.8333Z" fill="#5D5AF6"/>
<path d="M77.8183 23.1779C76.9293 23.1779 76.1383 23.0349 75.4453 22.749C74.7523 22.463 74.1678 22.0713 73.6918 21.5738C73.2158 21.0788 72.8541 20.5093 72.6068 19.8652C72.3594 19.2212 72.2358 18.5423 72.2358 17.8286V17.3925C72.2358 16.6643 72.3618 15.9722 72.6138 15.3162C72.8681 14.6625 73.2391 14.087 73.7268 13.5895C74.2168 13.0921 74.8083 12.7004 75.5013 12.4144C76.1919 12.1285 76.9643 11.9855 77.8183 11.9855C78.6956 11.9855 79.4784 12.1285 80.1668 12.4144C80.8528 12.7004 81.4361 13.0921 81.9168 13.5895C82.3998 14.087 82.7708 14.6625 83.0298 15.3162C83.2911 15.9722 83.4218 16.6643 83.4218 17.3925V17.8286C83.4218 18.5423 83.2981 19.2212 83.0508 19.8652C82.8034 20.5093 82.4418 21.0788 81.9658 21.5738C81.4898 22.0713 80.9053 22.463 80.2123 22.749C79.5193 23.0349 78.7213 23.1779 77.8183 23.1779ZM77.8183 20.6006C78.3993 20.6006 78.8823 20.4732 79.2673 20.2185C79.6499 19.9638 79.9428 19.6069 80.1458 19.1479C80.3511 18.6889 80.4538 18.1795 80.4538 17.6195C80.4538 17.0212 80.3488 16.4961 80.1388 16.0443C79.9288 15.5925 79.6289 15.2321 79.2393 14.9629C78.8496 14.6962 78.3759 14.5628 77.8183 14.5628C77.2746 14.5628 76.8044 14.6962 76.4078 14.9629C76.0134 15.2321 75.7136 15.5925 75.5083 16.0443C75.3053 16.4961 75.2038 17.0212 75.2038 17.6195C75.2038 18.1795 75.3029 18.6889 75.5013 19.1479C75.6973 19.6069 75.9936 19.9638 76.3903 20.2185C76.7869 20.4732 77.2629 20.6006 77.8183 20.6006Z" fill="#5D5AF6"/>
<path d="M85.6268 22.8174V8.87105H88.6158V22.8174H85.6268ZM84.4228 11.124V8.87105H88.6158V11.124H84.4228Z" fill="#5D5AF6"/>
<path d="M91.8253 22.8174V12.3459H94.7933V22.8174H91.8253ZM90.4708 14.6024V12.3459H94.7933V14.6024H90.4708ZM92.9733 11.315C92.418 11.315 92.0073 11.166 91.7413 10.868C91.4753 10.5676 91.3423 10.1879 91.3423 9.72895C91.3423 9.25794 91.4753 8.87344 91.7413 8.57546C92.0073 8.27507 92.418 8.12488 92.9733 8.12488C93.531 8.12488 93.9428 8.27507 94.2088 8.57546C94.4748 8.87344 94.6078 9.25794 94.6078 9.72895C94.6078 10.1879 94.4748 10.5676 94.2088 10.868C93.9428 11.166 93.531 11.315 92.9733 11.315Z" fill="#5D5AF6"/>
<path d="M102.49 23.1779C101.601 23.1779 100.81 23.0349 100.117 22.749C99.4238 22.463 98.8393 22.0713 98.3633 21.5738C97.8873 21.0788 97.5256 20.5093 97.2783 19.8652C97.031 19.2212 96.9073 18.5423 96.9073 17.8286V17.3925C96.9073 16.6643 97.0333 15.9722 97.2853 15.3162C97.5396 14.6625 97.9106 14.087 98.3983 13.5895C98.8883 13.0921 99.4798 12.7004 100.173 12.4144C100.863 12.1285 101.636 11.9855 102.49 11.9855C103.367 11.9855 104.15 12.1285 104.838 12.4144C105.524 12.7004 106.108 13.0921 106.588 13.5895C107.071 14.087 107.442 14.6625 107.701 15.3162C107.963 15.9722 108.093 16.6643 108.093 17.3925V17.8286C108.093 18.5423 107.97 19.2212 107.722 19.8652C107.475 20.5093 107.113 21.0788 106.637 21.5738C106.161 22.0713 105.577 22.463 104.884 22.749C104.191 23.0349 103.393 23.1779 102.49 23.1779ZM102.49 20.6006C103.071 20.6006 103.554 20.4732 103.939 20.2185C104.321 19.9638 104.614 19.6069 104.817 19.1479C105.023 18.6889 105.125 18.1795 105.125 17.6195C105.125 17.0212 105.02 16.4961 104.81 16.0443C104.6 15.5925 104.3 15.2321 103.911 14.9629C103.521 14.6962 103.047 14.5628 102.49 14.5628C101.946 14.5628 101.476 14.6962 101.079 14.9629C100.685 15.2321 100.385 15.5925 100.18 16.0443C99.9768 16.4961 99.8753 17.0212 99.8753 17.6195C99.8753 18.1795 99.9745 18.6889 100.173 19.1479C100.369 19.6069 100.665 19.9638 101.062 20.2185C101.458 20.4732 101.934 20.6006 102.49 20.6006Z" fill="#5D5AF6"/>
<path d="M110.169 22.8174V8.87105H113.137V16.913H112.692C112.692 15.8557 112.822 14.9641 113.081 14.2384C113.342 13.5126 113.726 12.9623 114.232 12.5874C114.739 12.2102 115.376 12.0215 116.143 12.0215H116.273C117.397 12.0215 118.257 12.4324 118.852 13.2543C119.445 14.0762 119.741 15.2765 119.741 16.8553V22.8174H116.773V16.6643C116.773 16.0924 116.61 15.631 116.283 15.2801C115.954 14.9293 115.524 14.7538 114.992 14.7538C114.436 14.7538 113.988 14.9389 113.648 15.309C113.307 15.679 113.137 16.1693 113.137 16.7797V22.8174H110.169Z" fill="#5D5AF6"/>
<path d="M125.695 23.1419C124.521 23.1419 123.619 22.7502 122.989 21.9667C122.357 21.1833 122.041 20.0022 122.041 18.4234V12.3459H125.009V18.5748C125.009 19.1347 125.164 19.5805 125.474 19.9121C125.782 20.2437 126.196 20.4095 126.717 20.4095C127.249 20.4095 127.682 20.2377 128.015 19.8941C128.349 19.5504 128.516 19.0854 128.516 18.4991V12.3459H131.484V22.8174H129.128V18.4017H129.331C129.331 19.4591 129.198 20.341 128.932 21.0476C128.666 21.7565 128.274 22.2828 127.756 22.6264C127.236 22.97 126.593 23.1419 125.828 23.1419H125.695Z" fill="#5D5AF6"/>
<path d="M140.482 23.1599C139.652 23.1599 138.921 22.9785 138.291 22.6156C137.661 22.2527 137.167 21.7276 136.807 21.0404C136.448 20.3531 136.257 19.512 136.233 18.5171H136.587V22.8174H134.228V8.87105H137.196V15.9578L136.492 16.8734C136.53 15.8184 136.724 14.9305 137.077 14.2095C137.429 13.491 137.914 12.9503 138.533 12.5874C139.151 12.2246 139.856 12.0431 140.647 12.0431C141.34 12.0431 141.967 12.1729 142.53 12.4324C143.092 12.6944 143.572 13.0645 143.968 13.5427C144.365 14.0185 144.671 14.582 144.885 15.2333C145.102 15.8821 145.211 16.5886 145.211 17.3528V17.7745C145.211 18.5387 145.102 19.2452 144.885 19.8941C144.671 20.5429 144.356 21.1124 143.94 21.6027C143.525 22.0929 143.027 22.475 142.446 22.749C141.865 23.0229 141.21 23.1599 140.482 23.1599ZM139.702 20.6006C140.208 20.6006 140.65 20.4732 141.028 20.2185C141.406 19.9638 141.7 19.6033 141.91 19.1371C142.12 18.6733 142.225 18.1482 142.225 17.5619C142.225 16.9635 142.12 16.442 141.91 15.9974C141.7 15.5505 141.406 15.2032 141.028 14.9557C140.65 14.7058 140.208 14.5808 139.702 14.5808C139.256 14.5808 138.836 14.6902 138.442 14.9088C138.045 15.1251 137.727 15.4339 137.486 15.8352C137.244 16.2366 137.122 16.7232 137.122 17.2951V18.0016C137.122 18.5495 137.249 19.0181 137.504 19.4074C137.758 19.7943 138.082 20.0899 138.477 20.2942C138.873 20.4985 139.282 20.6006 139.702 20.6006Z" fill="#5D5AF6"/>
<path d="M9.30579 6.28615C9.30579 6.18666 9.35374 6.13692 9.45034 6.13692H16.1105C16.2071 6.13692 16.2554 6.18666 16.2554 6.28615V7.92626H18.5717V6.28651C18.5717 4.89475 17.4618 3.75136 16.1105 3.75136H9.45034C8.09934 3.75136 6.98914 4.89475 6.98914 6.28651V7.92663H9.30579V6.28615ZM22.9635 9.8151H2.59699C1.96979 9.8151 1.43884 10.3619 1.43884 11.0082V14.9842H9.01634C9.64354 14.9842 10.1745 15.531 10.1745 16.1773V16.4754C10.1745 16.9729 10.7534 17.5691 11.6221 17.8174V17.7677C11.6221 17.1217 12.153 16.5749 12.7806 16.5749C13.4078 16.5749 13.9387 17.1217 13.9387 17.768V17.8174C14.8074 17.5687 15.3867 16.9725 15.3867 16.4754V16.1773C15.3867 15.531 15.9173 14.9842 16.5448 14.9842H24.122V11.0086C24.122 10.3623 23.591 9.8151 22.9635 9.8151Z" fill="#5D5AF6"/>
<path d="M13.9388 20.3028V20.5516C13.9388 21.1975 13.4078 21.7443 12.7803 21.7443C12.1531 21.7443 11.6221 21.1975 11.6221 20.5512V20.3025C9.78811 19.955 8.38881 18.8613 7.95411 17.4198H1.43921V25.9196C1.43921 26.5656 1.97016 27.1124 2.59771 27.1124H22.9642C23.5914 27.1124 24.1224 26.5656 24.1224 25.9192V17.4198H17.6068C17.1724 18.8613 15.7728 19.955 13.9388 20.3028Z" fill="#5D5AF6"/>
</svg>
